<?xml version="1.0" standalone="no"?>
<!DOCTYPE svg PUBLIC "-//W3C//DTD SVG 1.1//EN" "http://www.w3.org/Graphics/SVG/1.1/DTD/svg11.dtd">
<svg xmlns="http://www.w3.org/2000/svg" id="Layer_2" data-name="Layer 2" viewBox="0 0 300 300" width="300" height="300">
  <defs>
    <style>
      .cls-1 {
        fill: #28030f;
      }
    </style>
  </defs>
  <path class="cls-1" d="M268.96,63.88c10.5-7.03,18.24-13.05,15.01-21.4-3.92-10-17.17-12.62-21.14-13.19-2.37-.33-4.8-.49-7.23-.49-16.36,0-33.28,7.44-46.43,20.42-3.55,3.45-6.91,7.37-9.98,11.64l-.08.11c-.73.9-1.49,2.08-2.29,3.33-2.43,3.78-4.94,7.68-8.87,8.6l-.49.08c-.18.01-.35.02-.53.02-5.55,0-7.73-6.58-9.31-11.39-.32-.97-.61-1.83-.85-2.43l-.1-.28c-3.87-12.53-13.28-19.43-26.5-19.43-1.19,0-2.42.06-3.66.17-11.36.98-19.57,7.75-23.11,19.06l-.04.12c-.23.63-.46,1.3-.69,1.99l-.06.18c-1.8,5.34-4.05,11.99-9.48,11.99-2.58,0-4.99-1.62-7.37-4.95-.45-.64-.9-1.3-1.36-1.97l-.24-.35c-2.76-4.03-5.88-8.57-9.22-12.19-4.94-5.55-10.41-10.29-16.27-14.09-10.81-6.89-22.97-10.68-34.25-10.68-6.27,0-12.21,1.16-17.63,3.44-5.25,2.27-11.05,7.04-11.53,13.62-.41,7.03,7.51,12.44,14.5,17.21.68.47,1.31.89,1.92,1.31l.14.1c2.03,1.33,4.07,2.65,6.11,3.97l.39.25c4.53,2.94,9.22,5.97,13.79,9.1l.09.07c.51.39,1.23.88,2,1.39,5.08,3.42,8.96,6.35,8.91,10.28l-.02.34c-.31,2.73-2.61,4.1-3.59,4.69-1.06.61-2.31,1.14-3.75,1.76-2.25.96-4.79,2.05-6.9,3.57-6,4.23-9.59,11.87-9.14,19.47.28,7.39,5.24,13.66,12.34,15.68,2.32.7,4.71,1.05,7.12,1.05,12.97,0,25.23-10.29,27.92-23.43l.06-.25c1.51-5.32,3.25-10.39,7.92-13.9,2.04-1.56,4.58-2.41,7.14-2.41,2.26,0,4.41.64,6.23,1.86,3.4,2.19,5.34,6.15,6.94,10.1,6.75,18.01,15.91,27.3,28.86,29.34,1.87.32,3.79.49,5.72.49,5.48,0,10.75-1.26,15.25-3.65,9.66-4.86,15.7-16.49,19.07-25.39,2.42-6.41,5.14-10.1,8.56-11.62,1.53-.76,3.19-1.15,4.88-1.15,5,0,10.02,3.65,12.51,9.09,1.19,2.38,1.97,5.09,2.73,7.72.45,1.56.87,3.01,1.37,4.4,3.7,10.74,15.16,18.83,26.66,18.83,2.87,0,5.63-.51,8.21-1.51,8.34-3.05,12.75-12.02,10.55-21.36-2.6-11.29-10.25-14.62-15.84-17.06-3.27-1.43-6.1-2.66-6.89-5.53-.45-1.65-.07-3.35,1.15-5.04l.07-.1c1.84-2.35,4.56-4.23,6.96-5.89.52-.36,1.02-.7,1.5-1.05,5.3-3.64,10.97-7.31,16.45-10.86l3.76-2.44c.65-.44,1.33-.9,2.02-1.36ZM81.24,116.84l-.04.09c-2.83,5.5-8.34,9.9-14.73,11.76l-.12.03c-2.08.6-4.26.91-6.3.91-5.52,0-9.9-2.2-12.32-6.19l-.05-.08c-2.52-4.42-2.25-11.92,3.19-17.13,3.79-4.05,11.69-5.89,17.43-5.89,6.25,0,10.91,1.93,13.12,5.43,1.32,2.09,2.36,5.71-.19,11.06ZM106.38,82.82l-.1.37c-1.48,4.52-6.35,9.36-15.59,9.36-2.08,0-4.13-.29-5.95-.84-4.67-1.43-8.39-4.33-11.98-7.13-1.33-1.03-2.57-2-3.84-2.89-8.85-6.45-18.99-12.85-28.81-19.03-2.61-1.64-5.18-3.26-7.69-4.87l-.21-.13c-4.08-2.63-10.9-7.03-10.76-12.62.04-1.51.61-3.68,3.06-5.64v-.27l1.85-.96c4.86-2.53,10.34-3.76,16.73-3.76,2.55,0,5.22.19,8.16.59,17.16,2.42,34.9,13.14,46.31,27.96l.06.07c.49.67,1.01,1.37,1.55,2.08,4,5.32,8.52,11.32,7.19,17.72ZM181.45,104.36c-2.42,6.93-6.55,13.49-11.62,18.43-6.03,5.88-12.88,8.99-19.82,8.99-3.78,0-7.54-.93-11.19-2.75-5.67-2.85-10.67-7.39-14.47-13.12l-.06-.09c-6.8-11.06-9.39-20.01-7.93-27.37.53-2.84,1.56-5.45,2.47-7.43l2.67-5.25c1.76-2.84,3.05-6.25,4.31-9.54,3.05-8.01,6.19-16.28,16.07-19.1,2.65-.77,5.42-1.16,8.22-1.16,4.28,0,8.36.94,11.8,2.72,7,3.68,9.44,10.18,11.8,16.47.82,2.19,1.67,4.43,2.7,6.54.63,1.31,1.31,2.6,2.04,3.97,2.14,4.03,4.34,8.19,5.2,12.87.92,4.68.21,9.86-2.19,15.83ZM246.82,104.33l.22-.22,2.44,2.46c3.38,3.41,4.99,8.58,4.11,13.18-.75,3.9-3.13,6.9-6.71,8.46-2.16.95-4.54,1.43-7.1,1.43-9.87,0-21.63-7.86-22.61-18.38v-.15c-.07-2.72.81-5.05,2.56-6.84,3.56-3.64,9.57-4.04,13.38-3.86,3.19.13,9.1.83,13.7,3.92ZM263.68,60.27c-10.12,6.33-22.7,14.19-32.79,21.54-1.25.87-2.44,1.8-3.7,2.79-3.64,2.84-7.4,5.77-12.14,7.16-1.63.51-3.56.78-5.56.78-5.49,0-10.49-1.9-13.36-5.08-2.09-2.31-3.02-5.21-2.7-8.4.51-4.55,4.34-9.99,7.89-14.73,6.49-8.46,13.5-14.82,22.08-20.02h.01s1.75-1.03,1.75-1.03h.01c10.21-5.73,21.27-8.89,31.2-8.89,3.87,0,7.62.47,11.15,1.39,4.39,1.25,10.22,3.46,10.93,8.5.88,6.2-6.9,11.06-13.77,15.35l-1.01.63Z"/>
  <path class="cls-1" d="M284.72,254.18c.41-7.01-7.49-12.42-14.47-17.19-.64-.43-1.26-.86-1.84-1.26l-.14-.09c-2.15-1.41-4.29-2.8-6.42-4.18l-.24-.16c-4.51-2.92-9.17-5.94-13.73-9.06l-.09-.06c-.51-.39-1.19-.85-1.99-1.39-5.09-3.43-8.97-6.35-8.92-10.28l.02-.34c.31-2.75,2.61-4.1,3.59-4.68,1.07-.62,2.32-1.15,3.78-1.78,2.24-.96,4.77-2.04,6.88-3.55,6-4.23,9.59-11.87,9.14-19.47-.28-7.38-5.24-13.65-12.34-15.68-2.32-.7-4.71-1.05-7.12-1.05-12.96,0-25.23,10.29-27.92,23.42l-.06.25c-1.51,5.32-3.26,10.38-7.92,13.89-2.04,1.56-4.58,2.42-7.14,2.42-2.26,0-4.41-.64-6.23-1.86-3.4-2.19-5.35-6.18-6.95-10.15-5.58-14.64-12.3-23.22-21.17-26.99-4.12-1.83-8.72-2.8-13.31-2.8-10.89,0-20.78,5.12-26.48,13.7l-.06.09c-2.86,3.98-5.36,8.84-7.88,15.28-2.42,6.4-5.14,10.09-8.55,11.61-1.54.76-3.2,1.15-4.89,1.15-4.68,0-9.36-3.15-11.93-8.02-1.58-2.82-2.42-5.74-3.31-8.84l-.12-.45c-2.1-8.99-8.28-16.54-16.54-20.19-3.45-1.63-7.26-2.48-11.11-2.48-7.86,0-17.63,3.86-19.3,14.73-.98,6.27,1.01,13.17,5.19,18.01,1.84,2.15,4.2,3.97,6.85,5.28,1.13.57,2.37,1.1,3.57,1.62.68.29,1.34.58,2.02.88,2.01.93,7.34,3.4,5.04,8.57l-.15.3c-1.51,2.66-4.1,4.49-6.38,6.11-.49.35-.91.65-1.31.94l-.07.05c-6.43,4.45-12.97,8.67-19.29,12.76-1.3.91-2.7,1.83-4.18,2.81-7.93,5.21-16.86,11.09-15.82,19.05,1.12,5.27,4.61,9.43,10.35,12.27,5.02,2.49,11.61,3.86,18.55,3.86,1.63,0,3.26-.08,4.83-.23,19.07-1.72,38.08-13.21,50.88-30.72,1.12-1.47,2.22-3.12,3.29-4.72.75-1.12,1.45-2.16,2.13-3.12,2.43-3.37,4.55-5.03,6.87-5.38l.13-.02c.24-.03.46-.04.68-.04,5.53,0,7.7,6.54,9.28,11.32.3.91.59,1.78.83,2.38l.1.28c3.87,12.6,13.29,19.54,26.53,19.54,1.19,0,2.42-.06,3.67-.17,11.36-.97,19.56-7.74,23.11-19.06l.05-.13c.24-.66.48-1.36.73-2.1,1.82-5.4,4.07-12.04,9.5-12.04,2.58,0,4.99,1.62,7.37,4.95.5.72,1.01,1.46,1.52,2.21l.05.08c2.77,4.03,5.9,8.59,9.24,12.21,4.95,5.55,10.42,10.29,16.27,14.08,10.81,6.89,22.97,10.69,34.25,10.69,6.27,0,12.21-1.16,17.63-3.44,5.25-2.27,11.04-7.04,11.53-13.62ZM61.9,199.04c-1.77-.33-3.69-.73-5.3-1.57-.26-.14-.52-.29-.77-.45v.03l-.09-.09c-.18-.12-.36-.24-.54-.36-1.31-.88-2.62-1.76-3.92-2.64-1.06-.72-1.84-1.66-2.55-2.72-1.36-2.06-2.22-4.46-2.48-6.92-.14-1.35-.1-2.73.16-4.07.75-3.9,3.13-6.9,6.71-8.46,2.16-.95,4.54-1.43,7.1-1.43,9.86,0,21.62,7.86,22.61,18.37v.14c.08,2.73-.8,5.07-2.54,6.85-3.14,3.22-8.24,3.89-11.96,3.89-.49,0-.97-.01-1.41-.03-1.68-.08-3.35-.25-5.01-.56ZM106.57,220.94c-.51,4.56-4.34,9.99-7.89,14.73-6.47,8.45-13.47,14.79-22.03,19.99l-2.44,1.55-.09-.09c-10.01,5.49-20.81,8.5-30.5,8.5-3.87,0-7.62-.47-11.14-1.39-4.39-1.25-10.22-3.47-10.93-8.5-.88-6.21,6.92-11.07,13.79-15.36l.99-.62c10.14-6.34,22.71-14.2,32.78-21.54,1.24-.87,2.44-1.8,3.7-2.79,3.65-2.84,7.42-5.78,12.12-7.15,1.63-.51,3.57-.79,5.58-.79,5.5,0,10.5,1.9,13.37,5.08,2.09,2.31,3.02,5.21,2.7,8.4ZM183.64,211.57c-.85,4.5-2.89,8.46-4.76,11.97l.03.03-.42.68c-1.76,2.84-3.05,6.24-4.31,9.54-3.05,8.01-6.19,16.29-16.07,19.11-2.65.76-5.41,1.15-8.21,1.15-4.29,0-8.37-.94-11.81-2.72-6.99-3.68-9.44-10.18-11.8-16.46-.83-2.19-1.67-4.44-2.71-6.55-.64-1.33-1.35-2.68-2.04-3.98-2.13-4.02-4.34-8.18-5.19-12.86-.92-4.65-.22-9.8,2.14-15.7,2.44-7,6.58-13.57,11.64-18.53,6.03-5.89,12.89-9.01,19.84-9.01,3.9,0,7.79.98,11.55,2.92,5.55,2.88,10.43,7.36,14.12,12.94l.05.08c6.8,11.06,9.39,20.01,7.94,27.38ZM222.81,177.61c2.92-2.94,6.57-5.12,10.57-6.3h.03c1.91-.63,4.03-.96,6.11-.96,4.48,0,8.53,1.52,11.11,4.18,2.2,2.26,3.32,5.27,3.22,8.7-.39,9.14-7.93,15.52-19.21,16.26-.85.09-1.77.13-2.71.13-2.01,0-8.83-.28-12.14-3.83-5.1-5.36-2.16-13,3.01-18.18ZM275.48,260.6v.27l-1.85.96c-4.86,2.53-10.33,3.77-16.72,3.77-2.56,0-5.23-.19-8.17-.59-17.16-2.42-34.9-13.14-46.31-27.96l-.06-.07c-.5-.68-1.02-1.38-1.56-2.1-3.99-5.3-8.51-11.3-7.18-17.69l.1-.37c1.48-4.52,6.34-9.35,15.58-9.35,2.08,0,4.14.29,5.96.84,4.67,1.42,8.39,4.32,11.99,7.13,1.31,1.02,2.55,1.99,3.84,2.88,8.82,6.43,18.95,12.82,28.76,19,2.62,1.65,5.21,3.28,7.74,4.89l.21.14c4.08,2.63,10.9,7.03,10.76,12.61-.04,1.51-.61,3.68-3.06,5.64Z"/>
</svg>