<?xml version="1.0" standalone="no"?>
<!DOCTYPE svg PUBLIC "-//W3C//DTD SVG 1.1//EN" "http://www.w3.org/Graphics/SVG/1.1/DTD/svg11.dtd">
<svg xmlns="http://www.w3.org/2000/svg" id="PATTERN_2" viewBox="0 0 300 300" width="300" height="300">
  <defs>
    <style>
      .cls-1 {
        fill: #28030f;
      }
    </style>
  </defs>
  <path class="cls-1" d="M223.48,118.65c-2.75-1.34-5.73-2.57-8.98-3.18-7.52-1.49-16.75,1.21-28.2,8.25l-.08.05c-5.91,3.92-10.59,9.07-13.52,14.9-1.86,3.72-2.8,7.55-2.8,11.39,0,7.08,3.19,14.08,9.22,20.26,5.12,5.25,11.91,9.53,19.13,12.05,6.13,2.46,11.42,3.2,16.18,2.26,4.79-.88,9.12-3.17,13.3-5.39,1.46-.77,2.83-1.5,4.22-2.17,2.28-1.11,4.67-2.01,6.99-2.88,6.47-2.43,13.17-4.95,16.88-12.01,1.81-3.5,2.76-7.65,2.76-12.02,0-2.87-.4-5.7-1.19-8.42-2.85-9.97-11.36-13.21-19.59-16.34-3.52-1.34-7.16-2.72-10.24-4.63l-4.09-2.54v.41Z"/>
  <path class="cls-1" d="M195.23,46.09c-5.16-5.42-12.57-5.71-16.94-3.22l-.06.04c-3.92,2.37-6.08,6.7-6.08,12.19,0,2.07.32,4.27.92,6.39l.04.12c1.9,6.51,6.36,12.09,11.93,14.96l.07.04c5.26,2.51,8.76,1.52,10.76.26,3.41-2.15,5.29-6.79,5.29-13.05,0-5.89-1.86-13.93-5.94-17.73Z"/>
  <path class="cls-1" d="M201.14,236.32c0-3.75-.66-8.88-3.83-11.97-1.69-1.66-3.92-2.5-6.44-2.44h-.09s-.09.01-.09.01c-10.61.98-18.54,12.91-18.54,22.92,0,2.56.48,4.96,1.43,7.12,1.51,3.48,4.44,5.8,8.24,6.53,4.56.87,9.69-.73,13.07-4.08l1.92-1.9-.13-.12c3.48-4.68,4.28-10.98,4.43-14.62.02-.45.03-.94.03-1.44Z"/>
  <path class="cls-1" d="M265.99,18.54c-1.89-2.57-4-3.2-5.52-3.24-5.37-.14-9.83,6.78-12.49,10.92l-.14.22c-1.69,2.65-3.4,5.37-5.13,8.11-6.55,10.38-13.31,21.11-20.08,30.4l-.04.05c-.95,1.37-1.98,2.69-3.08,4.1-2.91,3.73-5.91,7.58-7.37,12.34-.55,1.83-.84,3.91-.84,6.01,0,9.24,4.76,14.09,9.22,15.55l.14.05.15.03c6.33,1.32,12.49-3.32,17.92-7.41.76-.57,1.5-1.13,2.22-1.66l.06-.04c15.46-11.9,26.63-30.4,29.15-48.27.42-3.07.62-5.84.62-8.49,0-6.6-1.26-12.23-3.87-17.22l-.75-1.44h-.17Z"/>
  <path class="cls-1" d="M260.45,228.04c-5.43-8.96-12.07-16.27-20.89-23.04-4.92-3.69-10.52-7.64-15.07-8.15-3.1-.31-5.9.59-8.13,2.61-3.16,2.86-5.05,7.87-5.05,13.4,0,2.02.27,3.96.79,5.61,1.42,4.83,4.46,8.73,7.4,12.5,1.05,1.35,2.05,2.63,2.96,3.94,7.78,10.69,16.09,23.98,22.77,34.67l.67,1.07c4.37,7,9.33,14.94,15.27,14.1,4.76-.67,6.94-6.48,8.17-10.78l.02-.06c.95-3.64,1.43-7.52,1.43-11.53,0-10.51-3.37-22.14-9.52-32.91h0s-.82-1.42-.82-1.42Z"/>
  <path class="cls-1" d="M88.08,87.24c0-2.03-.27-3.97-.79-5.63-1.4-4.79-4.45-8.7-7.39-12.48-1.05-1.35-2.05-2.63-2.96-3.94-7.78-10.68-16.1-23.98-22.78-34.66l-.65-1.05c-4.37-7.01-9.33-14.96-15.27-14.12-4.77.67-6.95,6.47-8.18,10.78l-.02.06c-.95,3.64-1.43,7.52-1.43,11.52,0,10.33,3.26,21.75,9.21,32.37l-.07.07,1.23,1.94c5.42,8.93,12.05,16.24,20.86,22.99,4.91,3.68,10.5,7.64,15.07,8.15,3.1.31,5.9-.59,8.13-2.61,3.16-2.86,5.05-7.87,5.05-13.41Z"/>
  <path class="cls-1" d="M88.09,212.66c0-9.24-4.76-14.09-9.22-15.54l-.14-.05-.15-.03c-6.33-1.32-12.48,3.32-17.91,7.41-.76.57-1.5,1.13-2.23,1.66l-.06.04c-15.46,11.9-26.63,30.4-29.15,48.27-.42,3.07-.62,5.85-.62,8.5,0,6.59,1.27,12.22,3.87,17.21l.75,1.44h.17c1.89,2.57,4,3.2,5.52,3.24,5.37.14,9.83-6.78,12.49-10.92l.14-.22c1.7-2.67,3.42-5.4,5.16-8.16,6.53-10.36,13.29-21.08,20.05-30.35l.04-.05c.95-1.36,1.98-2.69,3.07-4.09,2.91-3.73,5.91-7.59,7.36-12.35.55-1.83.85-3.91.85-6.01Z"/>
  <path class="cls-1" d="M101.04,117.68c-6.07-2.43-11.33-3.16-16.07-2.21-4.79.88-9.12,3.17-13.3,5.39-1.46.77-2.83,1.5-4.22,2.17-2.28,1.12-4.68,2.02-7,2.89-6.47,2.43-13.16,4.95-16.87,12.01-1.81,3.5-2.76,7.66-2.76,12.03,0,2.86.4,5.69,1.18,8.41,2.85,9.97,11.36,13.21,19.6,16.34,3.52,1.34,7.17,2.72,10.24,4.63l3.34-4.14-3.33,4.14.18.11.07.04c3.75,1.99,8,4.26,12.81,5.16,7.52,1.49,16.75-1.21,28.2-8.25l.07-.05c5.76-3.81,10.38-8.84,13.34-14.55,1.98-3.84,2.98-7.79,2.98-11.76,0-7.09-3.19-14.1-9.24-20.28-5.13-5.25-11.96-9.53-19.22-12.06Z"/>
  <path class="cls-1" d="M101.14,50.29c-2.16,4.23-2.73,9.08-2.85,12.09-.02.45-.03.94-.03,1.44,0,3.75.66,8.87,3.82,11.95,1.7,1.65,3.93,2.49,6.45,2.43h.09s.09-.01.09-.01c10.61-.99,18.53-12.92,18.53-22.92,0-2.56-.48-4.95-1.43-7.11-1.51-3.48-4.44-5.8-8.23-6.53-4.56-.88-9.69.73-13.07,4.08l-4.62,4.58h1.26Z"/>
  <path class="cls-1" d="M126.28,238.35c-1.2-4.07-3.42-7.78-6.41-10.75-5.15-5.14-12.67-8.11-17.88-3.16-3.47,3.24-3.74,10.1-3.74,12.12,0,.96.05,1.9.14,2.79.75,11.39,7.12,19,16.24,19.4,3.37.09,6.3-.99,8.5-3.14,2.62-2.55,4.12-6.58,4.12-11.05,0-2.1-.33-4.24-.97-6.19v-.03Z"/>
</svg>