<?xml version="1.0" standalone="no"?>
<!DOCTYPE svg PUBLIC "-//W3C//DTD SVG 1.1//EN" "http://www.w3.org/Graphics/SVG/1.1/DTD/svg11.dtd">
<svg xmlns="http://www.w3.org/2000/svg" id="Layer_1" data-name="Layer 1" viewBox="0 0 300 300" width="300" height="300">
  <defs>
    <style>
      .cls-1 {
        fill: #28030f;
      }
    </style>
  </defs>
  <path class="cls-1" d="M33.41,285.56c-5.93,0-11.99-4.13-14.68-8.01-10.9-15.96,2.13-35.43,12.61-51.08l.1-.15c22.36-31,31.67-52.08,32.16-72.77.49-21.05-7.99-42.3-29.29-73.37l-.31-.49c-.73-1.15-1.5-2.33-2.27-3.52-11.49-17.82-24.52-38-12.37-54.54,2.84-3.48,8.06-7.19,14.22-7.19.35,0,.71.01,1.05.04,7.71.65,14.2,9.07,19.41,15.84,1.06,1.37,2.04,2.65,3.02,3.85,4.36,5.75,9.03,11.87,14.02,18.07l.06.07c.53.63,1.05,1.28,1.61,1.97,2.29,2.86,4.88,6.09,8.59,8.19,1.61.97,3.42,1.47,5.33,1.47,3.79,0,7.64-1.93,11.75-5.9,4.03-3.92,8.35-7.99,13.1-10.87,6.28-3.87,11.35-5.75,15.53-5.75,2.27,0,4.24.56,6,1.72,3.8,2.46,5.54,6.31,6.33,9.11,1.02,3.61,1.08,7.65.17,11.08l-.02.07c-1.31,5.34-4.74,10.44-9.68,14.4-5.51,4.43-12.3,7.09-19.13,7.5-1.49.09-2.97.1-4.4.11-2.94.02-5.71.03-8.61.67-3.57.7-6.38,2.51-8.11,5.25-1.9,2.99-2.37,6.87-1.33,10.92,2.77,10.58,11.32,18.64,19.58,26.43l.58.54c1.85,1.69,3.67,3.22,5.43,4.71,3.21,2.71,6.24,5.26,8.78,8.12,3.92,4.4,4.97,8.27,3.39,12.55-1.75,4.74-6.5,9.62-10.92,13.77-1.7,1.63-3.47,3.31-5.28,5.01l-.04.04c-5.37,5.07-10.93,10.31-15.19,15.01-1.76,1.97-3.95,4.62-5.42,7.75-2.3,4.74-2.42,9.48-.33,12.97,1.39,2.33,4.38,5.17,10.7,5.47.84.06,1.75.09,2.87.09.91,0,1.85-.02,2.82-.04.95-.02,1.92-.04,2.9-.04,1.07,0,1.98.03,2.81.08,3.76.25,7.48,1.17,11.04,2.73,14.14,6,21.63,20.36,16.73,32.01-2.49,5.87-6.58,8.73-12.49,8.73s-13.68-3.16-20.2-8.46l-.09-.07c-2.13-1.63-4.22-3.58-6.24-5.47-.63-.59-1.25-1.17-1.86-1.73-2.6-2.43-6.65-5.68-11.63-5.68-2.6,0-5.04.88-7.25,2.62-2.83,2.08-5.38,5.27-8.07,8.65-.5.63-1,1.26-1.51,1.88-2.45,3.07-4.82,6.11-7.06,9.05-1.52,1.83-3.16,4.05-4.9,6.39-6.16,8.3-14.59,19.67-22.67,20.18h-.12c-.41.05-.79.07-1.18.07h0ZM32.08,18.53c-1.93,0-5.6.69-8.45,5.34l-.14.24c-8.3,14.92,2.83,32.05,11.78,45.82,1.24,1.91,2.41,3.71,3.46,5.41l.06.1.07.1c12.69,18.23,25.11,37.92,29.96,58.41,4.89,20.64,1.78,40.12-9.78,61.3l-.04.07c-4.62,8.92-10.77,17.79-16.72,26.38-5.76,8.32-11.72,16.92-16.44,25.73-4.93,9.48-6.33,17.62-4.16,24.21.81,2.43,3.28,9.78,10.64,9.78.17,0,.34,0,.52-.01,3.75-.14,7.84-3.1,12.48-9.05,2.58-3.21,5.14-6.54,7.62-9.76,2.21-2.88,4.47-5.82,6.76-8.68,5.14-6.49,9.73-12.06,13.66-16.57,2.76-3.16,5.75-7.03,7.02-11.73,1.33-4.59.85-9.1.39-13.45-.17-1.57-.33-3.06-.39-4.48-.13-3.52.33-6.79,1.36-9.69,1.75-5,5.72-9.28,10.35-13.97,4.9-4.95,10.28-9.93,15.02-14.32l.96-.89c2.66-2.47,5.17-4.8,7.56-7.39,3.23-3.51,4.82-6.78,4.87-10,.19-6.39-5.83-11.18-11.15-15.41-1.44-1.15-2.81-2.23-3.75-3.14l-.07-.07c-12.39-11.18-23.58-22.3-24.67-35.46-.23-2.48.09-5.22.43-8.12.57-4.82,1.15-9.81-.48-14.86-1.5-4.97-4.88-8.83-8.15-12.56l-.6-.69c-3.55-4.13-7.72-9.22-12.39-15.12-2.35-2.94-4.66-5.95-6.89-8.85-2.03-2.64-4.1-5.34-6.21-8.01l-.43-.54c-3.16-4-7.95-10.05-14.02-10.05ZM101.68,217.52c-4.49,1.46-7.19,4.69-7.31,8.86-.13,6.41,5.91,13.47,19.56,22.92l.13.09.14.08c.39.23.81.49,1.24.77,2.76,1.73,6.18,3.87,10.04,3.87,1.69,0,3.26-.41,4.68-1.23l.36-.2.31-.26c2.8-2.35,4.23-5.95,4.14-10.41-.08-3.73-1.23-7.79-3.24-11.43-4.71-8.19-14.77-13.89-24.49-13.89-.4,0-.81,0-1.21.03l-4.36.21v.6ZM101.91,61.4l-.86.87c-5.42,5.53-7.24,10.54-5.41,14.89,1.64,3.91,5.95,6.15,11.82,6.15,5.6,0,11.69-2.01,16.29-5.36,3.55-2.46,6.46-5.7,8.37-9.34,2.82-5.08,4.04-13.31,1.15-18.22-1.59-2.71-4.3-4.26-7.44-4.26-2.13,0-4.38.68-6.88,2.07-6.7,3.76-12.53,8.82-16.42,12.6h-.02l-.61.6Z"/>
  <path class="cls-1" d="M266.62,285.56c-8.15,0-14.09-7.52-19.33-14.16-.92-1.17-1.79-2.27-2.68-3.34-.94-1.23-1.88-2.47-2.82-3.7-3.63-4.77-7.37-9.68-11.19-14.46-.79-.95-1.5-1.85-2.19-2.71-4.11-5.15-8.35-10.46-14.78-10.46-4.09,0-8.07,2.11-12.53,6.63-3.35,3.22-7.04,6.59-11.4,9.34l-.07.05c-5.16,3.46-10.93,5.43-15.85,5.43-4.31,0-7.59-1.46-10.01-4.47-4.75-5.94-5.33-14.62-1.48-22.1,4.81-9.59,16.56-16.71,27.95-16.96.53-.02,1-.02,1.47-.02.9,0,1.84.02,2.75.04.98.02,1.96.05,2.94.05,2.08,0,3.74-.11,5.22-.35,4.74-.66,7.17-3.11,8.37-5.05,1.78-2.88,2.09-6.66.84-10.38-1.46-4.73-4.5-8.4-7.56-11.66-4.45-4.73-10.33-10.27-15.52-15.16l-.37-.35c-.5-.48-1.57-1.5-1.57-1.5-4.1-3.9-7.97-7.58-10.9-11.77-6.56-9.31-.92-15.54,12.57-26.6l.22-.19c8.7-7.79,19.51-17.47,22.79-28.72l.04-.14c1.28-5.19.73-9.18-1.67-12.25-3.65-4.66-10.51-5.19-15.35-5.19-.67,0-1.36.01-2.07.03h-.12c-.29,0-.54,0-.8,0-9.2,0-18.12-3.81-24.46-10.45-4.98-5.22-7.58-11.41-7.3-17.43v-.12c.1-7.89,5.16-16.01,13.46-16.01,2.15,0,4.47.52,6.88,1.55l.12.05c4.78,1.83,9.87,4.89,14.37,8.65l.13.11.14.1c1.1.78,2.46,2.14,3.91,3.58,3.98,3.97,8.5,8.47,14.39,8.47,1.36,0,2.7-.25,3.98-.75l.15-.06.15-.07c4.82-2.29,8.03-6.44,11.12-10.44.98-1.26,1.9-2.45,2.85-3.56l.05-.06c2.86-3.47,5.62-7.16,8.29-10.72,4.91-6.56,9.98-13.33,15.7-18.81,3.28-3.25,7.13-4.95,11.14-4.95,5.61,0,11.4,3.32,15.1,8.66,3.48,5.42,4.56,11.57,3.31,18.82-2.28,11.91-9.85,23.54-17.17,34.79-.89,1.38-1.77,2.73-2.64,4.07-12.97,19.73-26.39,40.16-28.62,64.67-1.89,18.75,4.34,38.92,19.04,61.64,2.77,4.63,6.1,9.4,9.62,14.46,11.04,15.84,23.55,33.79,19.17,49.22-1.65,6.25-7.47,13.47-16.38,14.64-.48.05-.96.07-1.43.07ZM218.47,76.92c-.81,4.23-.29,8.41.2,12.45.08.67.16,1.31.23,1.95l.02.13c1.5,9.98-2.88,19.71-14.19,31.56-3.13,3.33-6.63,6.65-10.41,9.89-1.17,1.02-2.39,2.02-3.58,3-2.5,2.05-5.09,4.17-7.36,6.56-5.59,5.71-5.25,12.48.97,19.05,2.29,2.5,4.88,4.9,7.38,7.23l1.06.99c4.75,4.4,10.14,9.38,15.03,14.34,3.94,3.96,8.2,8.58,9.96,12.86,1.74,4.02,2.18,8.78,1.39,15.02-.81,6.44-1.01,13.93,3.65,20.61l.07.09c2.84,3.82,5.77,7.28,8.87,10.94,2.83,3.34,5.75,6.79,8.55,10.48l.06.08c2.2,2.75,4.37,5.58,6.47,8.32,2.98,3.89,6.05,7.91,9.31,11.8,3.82,4.75,7.74,7.17,11.62,7.17,3.03,0,8.47-1.49,10.9-11.49l.03-.13.02-.13c2.38-13.08-6.07-25.63-13.53-36.7-1.23-1.83-2.39-3.54-3.48-5.23l-.57-.82c-13.41-19.24-26.07-37.42-30.56-58.65-8.1-35.69,12.75-66.61,32.91-96.5l1.14-1.69.05-.09c.64-1.05,1.31-2.13,2-3.23l.03-.05c7.84-12.58,17.59-28.25,9.67-42.58l-.06-.1c-2.83-4.74-6.54-5.45-8.5-5.45-5.37,0-9.79,4.76-12.65,8.34-2.99,3.75-6.06,7.7-9.03,11.53-6.18,7.96-12.57,16.19-18.93,23.43-4.03,4.51-7.73,9.06-8.76,15v.06ZM173,224.59c-8.51,7.45-9.97,20.22-5.54,26.25l.13.18.15.17c1.74,1.95,4.05,2.98,6.67,2.98,3.82,0,7.29-2.16,10.07-3.89.41-.26.78-.49,1.13-.69l.13-.08c4.27-2.8,8.58-6.22,12.23-9.72h.03l.61-.6.85-.86c5.48-5.64,7.3-10.75,5.42-15.21-1.71-4.04-6.18-6.36-12.27-6.36-6.97,0-14.67,3.08-19.61,7.85ZM173.91,46.13c-1.51,0-2.89.36-4.1,1.06l-.14.08-.14.09c-5.74,3.77-4.56,12.18-4.07,14.67,1.49,7.99,7.58,15.21,15.87,18.83,3.33,1.53,7.73,2.5,11.44,2.5,7.05,0,11.72-3.5,12.16-9.13l.02-.31-.02-.31c-.37-6.31-5.5-10.97-9.63-14.72-.58-.52-1.14-1.03-1.67-1.54l-.12-.11-.13-.1c-.29-.23-.62-.51-.99-.82-6.25-5.16-12.8-10.17-18.47-10.17Z"/>
</svg>