<?xml version="1.0" standalone="no"?>
<!DOCTYPE svg PUBLIC "-//W3C//DTD SVG 1.1//EN" "http://www.w3.org/Graphics/SVG/1.1/DTD/svg11.dtd">
<svg xmlns="http://www.w3.org/2000/svg" id="PATTERN_1" viewBox="0 0 300 300" width="300" height="300">
  <defs>
    <style>
      .cls-1 {
        fill: none;
      }

      .cls-2 {
        fill: #28030f;
      }
    </style>
  </defs>
  <rect class="cls-1" x="14.07" y="14.61" width="270.89" height="270.89"/>
  <path class="cls-2" d="M33.49,22.64c-1.81,0-4.43.75-6.6,4.3l-.1.16c-7.58,13.63,3.01,29.94,11.53,43.04,1.23,1.89,2.39,3.67,3.43,5.36l.04.06.04.06c12.61,18.1,24.94,37.68,29.79,58.18,4.93,20.83,1.81,40.45-9.82,61.76l-.02.05c-4.6,8.87-10.69,17.66-16.58,26.17-5.64,8.14-11.47,16.56-16.07,25.13-4.59,8.82-5.92,16.3-3.95,22.25.76,2.27,2.77,8.26,8.57,8.26.13,0,.27,0,.41-.01,3.04-.12,6.68-2.86,10.8-8.14,2.55-3.17,5.07-6.45,7.5-9.61,2.16-2.81,4.4-5.72,6.66-8.56,5.07-6.4,9.61-11.91,13.5-16.37,2.56-2.94,5.34-6.52,6.49-10.76,1.21-4.18.76-8.41.32-12.51-.17-1.58-.33-3.07-.39-4.54-.14-3.73.35-7.2,1.45-10.29,1.86-5.31,5.92-9.7,10.65-14.49,4.85-4.9,10.16-9.82,14.85-14.16l.94-.87c2.59-2.4,5.03-4.67,7.33-7.16,2.83-3.07,4.22-5.86,4.27-8.52.16-5.31-5.36-9.7-10.22-13.57-1.46-1.16-2.83-2.25-3.83-3.21l-.05-.05c-12.49-11.27-23.79-22.52-24.91-36.21-.25-2.63.08-5.43.43-8.39.53-4.53,1.08-9.22-.39-13.78-1.36-4.51-4.55-8.15-7.63-11.66l-.59-.68c-3.52-4.09-7.65-9.13-12.26-14.96-2.33-2.92-4.61-5.89-6.82-8.77-1.97-2.57-4.01-5.22-6.08-7.83l-.42-.53c-2.88-3.64-7.22-9.13-12.23-9.13Z"/>
  <path class="cls-2" d="M104,218.05c-3.7.79-7.07,2.99-7.19,7.24-.11,5.48,5.74,12.1,18.39,20.86l.07.05.08.04c.4.24.83.51,1.28.79,2.48,1.56,5.58,3.49,8.81,3.49,1.3,0,2.52-.32,3.61-.94l.19-.11.17-.14c4.9-4.12,3.92-12.68.42-18.99-4.29-7.46-13.47-12.64-22.35-12.64-.37,0-.73,0-1.1.03l-2.39.11v.21Z"/>
  <path class="cls-2" d="M102.8,65.1c-4.71,4.8-6.36,9-4.9,12.48,1.29,3.07,4.86,4.83,9.79,4.83,5.11,0,10.66-1.83,14.85-4.89,3.27-2.27,5.92-5.21,7.65-8.5,2.47-4.46,3.63-11.82,1.18-15.99-1.22-2.07-3.2-3.21-5.59-3.21-1.74,0-3.64.58-5.8,1.78-6.64,3.72-12.43,8.8-16.32,12.66h-.02l-.85.85Z"/>
  <path class="cls-2" d="M218.92,78.52c-.73,3.83-.24,7.78.23,11.6.08.65.16,1.3.23,1.94v.09c1.58,10.46-2.89,20.55-14.49,32.71-3.12,3.32-6.61,6.64-10.39,9.87-1.16,1.01-2.38,2.01-3.55,2.98-2.41,1.98-4.91,4.03-7.06,6.29-5.96,6.08-2.77,12.06.96,15.99,2.22,2.42,4.74,4.76,7.18,7.02l1.05.98c4.69,4.35,10.01,9.26,14.86,14.17,4.02,4.04,8.37,8.77,10.23,13.31,1.86,4.28,2.33,9.29,1.5,15.8-.75,5.96-.95,12.87,3.25,18.9l.05.06c2.74,3.68,5.61,7.07,8.64,10.65,2.8,3.31,5.7,6.73,8.48,10.4l.04.05c2.17,2.71,4.31,5.51,6.38,8.21,2.91,3.81,5.93,7.75,9.1,11.54,3.37,4.2,6.72,6.34,9.9,6.34,2.39,0,6.71-1.27,8.79-9.78l.02-.07v-.07c2.21-12.07-5.87-24.07-12.99-34.65-1.21-1.8-2.36-3.5-3.44-5.18l-.52-.75c-13.32-19.11-25.89-37.16-30.4-58.47-8.16-35.95,12.61-66.75,32.69-96.53l1.1-1.63.03-.05c.65-1.06,1.32-2.14,2.01-3.24,7.44-11.94,16.69-26.81,9.46-39.88l-.04-.07c-2.15-3.6-4.79-4.36-6.63-4.36-4.43,0-8.33,4.26-10.89,7.46-2.94,3.68-5.95,7.56-8.87,11.33-6.1,7.86-12.41,15.99-18.71,23.16-3.77,4.23-7.25,8.48-8.16,13.81l-.02.09Z"/>
  <path class="cls-2" d="M173.56,224.95c-7.51,6.54-8.99,18.01-5.19,23.18l.07.1.08.09c1.33,1.48,3.08,2.26,5.07,2.26,3.19,0,6.33-1.96,8.86-3.53.4-.25.79-.49,1.15-.7l.09-.06c4.32-2.83,8.65-6.31,12.3-9.88h.02l.84-.84c4.77-4.91,6.42-9.21,4.91-12.78-1.35-3.2-5.08-5.04-10.24-5.04-6.4,0-13.43,2.82-17.95,7.2Z"/>
  <path class="cls-2" d="M181.2,80.15c3.07,1.41,7.07,2.29,10.46,2.29,5.89,0,9.62-2.67,9.98-7.14v-.17s0-.17,0-.17c-.31-5.39-4.84-9.5-8.83-13.12-.57-.52-1.13-1.03-1.67-1.53l-.07-.06-.07-.06c-.29-.24-.64-.52-1.02-.84-5.59-4.61-11.97-9.53-16.88-9.53-1.13,0-2.15.26-3.04.77l-.1.06-.08.05c-4.6,3.02-3.57,10.23-3.14,12.37,1.35,7.23,6.89,13.79,14.46,17.1Z"/>
</svg>