<?xml version="1.0" standalone="no"?>
<!DOCTYPE svg PUBLIC "-//W3C//DTD SVG 1.1//EN" "http://www.w3.org/Graphics/SVG/1.1/DTD/svg11.dtd">
<svg xmlns="http://www.w3.org/2000/svg" width="728" height="400" viewBox="0 0 728 400" fill="none">
<g clip-path="url(#clip0_14_196)">
<path d="M242.42 161.101C241.195 133.685 218.84 111.406 191.211 110.066C177.686 109.405 165.181 113.703 155.382 121.274C153.289 122.893 150.32 122.893 148.219 121.274C138.42 113.695 125.915 109.405 112.39 110.066C84.7607 111.406 62.4056 133.685 61.1722 161.101C60.5682 174.598 65.0086 187.043 72.775 196.758C74.4508 198.86 74.4508 201.853 72.775 203.947C65.0171 213.671 60.5767 226.116 61.1722 239.612C62.3971 267.029 84.7437 289.308 112.381 290.656C125.907 291.317 138.411 287.019 148.211 279.448C150.303 277.829 153.272 277.829 155.373 279.448C165.173 287.019 177.677 291.309 191.202 290.656C218.832 289.316 241.187 267.029 242.412 239.612C243.016 226.116 238.575 213.671 230.809 203.956C229.133 201.853 229.133 198.86 230.809 196.767C238.575 187.06 243.016 174.606 242.412 161.11L242.42 161.101ZM217.862 202.862C229.201 213.408 235.028 229.727 230.571 247.098C226.615 262.459 214.408 274.565 198.926 278.482C181.403 282.907 164.96 277.126 154.327 265.859C152.957 264.409 150.652 264.409 149.282 265.859C138.649 277.117 122.206 282.907 104.683 278.482C89.1926 274.574 76.9857 262.459 73.0387 247.098C68.5728 229.727 74.4083 213.416 85.7474 202.862C87.2105 201.505 87.2105 199.217 85.7474 197.86C74.4083 187.314 68.5813 170.995 73.0387 153.624C76.9942 138.263 89.2011 126.157 104.683 122.24C122.206 117.815 138.649 123.597 149.282 134.863C150.652 136.313 152.957 136.313 154.327 134.863C164.96 123.605 181.403 117.815 198.926 122.24C214.417 126.148 226.624 138.263 230.571 153.624C235.036 170.995 229.201 187.314 217.862 197.86C216.399 199.217 216.399 201.505 217.862 202.862Z" fill="#28030F"/>
<path d="M190.989 137.153C181.717 137.153 173.56 141.807 168.626 149.911C164.73 156.304 162.178 163.391 161.361 177.82C161.183 180.956 158.597 183.423 155.441 183.466C154.258 183.483 153.05 183.491 151.792 183.491C150.533 183.491 149.316 183.491 148.142 183.466C144.986 183.423 142.392 180.956 142.222 177.82C141.405 163.382 138.845 156.295 134.957 149.911C130.015 141.807 121.866 137.153 112.594 137.153C101.731 137.153 89.5665 146.919 89.5665 159.983C89.5665 170.775 94.9937 180.21 104.453 185.848C113.47 191.223 124.528 194.554 151.8 194.554C179.072 194.554 190.13 191.223 199.147 185.848C208.606 180.21 214.034 170.783 214.034 159.983C214.034 146.919 201.878 137.153 191.006 137.153H190.989ZM110.169 176.37C101.918 171.453 100.693 163.993 100.693 159.991C100.693 153.65 107.218 148.224 112.568 148.224C117.919 148.224 122.436 150.785 125.387 155.642C128.433 160.653 130.449 166.477 131.104 178.998C131.197 180.897 129.53 182.398 127.633 182.118C118.395 180.761 113.878 178.583 110.178 176.378H110.169V176.37ZM193.388 176.37C189.688 178.583 185.163 180.761 175.933 182.109C174.036 182.381 172.369 180.88 172.462 178.99C173.117 166.477 175.125 160.644 178.179 155.634C181.13 150.785 185.562 148.216 190.998 148.216C196.434 148.216 202.873 153.65 202.873 159.983C202.873 163.993 201.64 171.445 193.397 176.362L193.388 176.37Z" fill="#28030F"/>
<path d="M112.602 263.561C121.874 263.561 130.032 258.907 134.966 250.802C138.862 244.41 141.414 237.323 142.23 222.894C142.409 219.757 144.995 217.29 148.151 217.248C149.333 217.231 150.541 217.223 151.8 217.223C153.059 217.223 154.267 217.223 155.449 217.248C158.605 217.29 161.2 219.757 161.37 222.894C162.186 237.331 164.747 244.419 168.634 250.802C173.577 258.907 181.726 263.561 190.998 263.561C201.861 263.561 214.025 253.795 214.025 240.731C214.025 229.939 208.598 220.503 199.139 214.866C190.122 209.491 179.063 206.159 151.791 206.159C124.52 206.159 113.461 209.491 104.444 214.866C94.9851 220.503 89.558 229.931 89.558 240.731C89.558 253.795 101.714 263.561 112.585 263.561H112.602ZM193.431 224.344C201.682 229.261 202.907 236.721 202.907 240.723C202.907 247.064 196.383 252.489 191.032 252.489C185.681 252.489 181.164 249.929 178.213 245.072C175.167 240.061 173.151 234.229 172.496 221.716C172.403 219.817 174.07 218.316 175.967 218.596C185.205 219.952 189.722 222.131 193.422 224.335H193.431V224.344ZM110.212 224.344C113.912 222.131 118.438 219.952 127.667 218.605C129.564 218.333 131.231 219.834 131.138 221.724C130.483 234.237 128.475 240.07 125.421 245.08C122.47 249.929 118.038 252.506 112.602 252.506C107.166 252.506 100.727 247.072 100.727 240.739C100.727 236.73 101.96 229.278 110.203 224.361H110.212V224.344Z" fill="#28030F"/>
<path d="M242.42 161.101C241.195 133.685 218.84 111.406 191.211 110.066C177.686 109.405 165.181 113.703 155.382 121.274C153.289 122.893 150.32 122.893 148.219 121.274C138.42 113.695 125.915 109.405 112.39 110.066C84.7607 111.406 62.4056 133.685 61.1722 161.101C60.5682 174.598 65.0086 187.043 72.775 196.758C74.4508 198.86 74.4508 201.853 72.775 203.947C65.0171 213.671 60.5767 226.116 61.1722 239.612C62.3971 267.029 84.7437 289.308 112.381 290.656C125.907 291.317 138.411 287.019 148.211 279.448C150.303 277.829 153.272 277.829 155.373 279.448C165.173 287.019 177.677 291.309 191.202 290.656C218.832 289.316 241.187 267.029 242.412 239.612C243.016 226.116 238.575 213.671 230.809 203.956C229.133 201.853 229.133 198.86 230.809 196.767C238.575 187.06 243.016 174.606 242.412 161.11L242.42 161.101ZM217.862 202.862C229.201 213.408 235.028 229.727 230.571 247.098C226.615 262.459 214.408 274.565 198.926 278.482C181.403 282.907 164.96 277.126 154.327 265.859C152.957 264.409 150.652 264.409 149.282 265.859C138.649 277.117 122.206 282.907 104.683 278.482C89.1926 274.574 76.9857 262.459 73.0387 247.098C68.5728 229.727 74.4083 213.416 85.7474 202.862C87.2105 201.505 87.2105 199.217 85.7474 197.86C74.4083 187.314 68.5813 170.995 73.0387 153.624C76.9942 138.263 89.2011 126.157 104.683 122.24C122.206 117.815 138.649 123.597 149.282 134.863C150.652 136.313 152.957 136.313 154.327 134.863C164.96 123.605 181.403 117.815 198.926 122.24C214.417 126.148 226.624 138.263 230.571 153.624C235.036 170.995 229.201 187.314 217.862 197.86C216.399 199.217 216.399 201.505 217.862 202.862Z" fill="#28030F"/>
<path d="M190.989 137.153C181.717 137.153 173.56 141.807 168.626 149.911C164.73 156.304 162.178 163.391 161.361 177.82C161.183 180.956 158.597 183.423 155.441 183.466C154.258 183.483 153.05 183.491 151.792 183.491C150.533 183.491 149.316 183.491 148.142 183.466C144.986 183.423 142.392 180.956 142.222 177.82C141.405 163.382 138.845 156.295 134.957 149.911C130.015 141.807 121.866 137.153 112.594 137.153C101.731 137.153 89.5665 146.919 89.5665 159.983C89.5665 170.775 94.9937 180.21 104.453 185.848C113.47 191.223 124.528 194.554 151.8 194.554C179.072 194.554 190.13 191.223 199.147 185.848C208.606 180.21 214.034 170.783 214.034 159.983C214.034 146.919 201.878 137.153 191.006 137.153H190.989ZM110.169 176.37C101.918 171.453 100.693 163.993 100.693 159.991C100.693 153.65 107.218 148.224 112.568 148.224C117.919 148.224 122.436 150.785 125.387 155.642C128.433 160.653 130.449 166.477 131.104 178.998C131.197 180.897 129.53 182.398 127.633 182.118C118.395 180.761 113.878 178.583 110.178 176.378H110.169V176.37ZM193.388 176.37C189.688 178.583 185.163 180.761 175.933 182.109C174.036 182.381 172.369 180.88 172.462 178.99C173.117 166.477 175.125 160.644 178.179 155.634C181.13 150.785 185.562 148.216 190.998 148.216C196.434 148.216 202.873 153.65 202.873 159.983C202.873 163.993 201.64 171.445 193.397 176.362L193.388 176.37Z" fill="#28030F"/>
<path d="M112.602 263.561C121.874 263.561 130.032 258.907 134.966 250.802C138.862 244.41 141.414 237.323 142.23 222.894C142.409 219.757 144.995 217.29 148.151 217.248C149.333 217.231 150.541 217.223 151.8 217.223C153.059 217.223 154.267 217.223 155.449 217.248C158.605 217.29 161.2 219.757 161.37 222.894C162.186 237.331 164.747 244.419 168.634 250.802C173.577 258.907 181.726 263.561 190.998 263.561C201.861 263.561 214.025 253.795 214.025 240.731C214.025 229.939 208.598 220.503 199.139 214.866C190.122 209.491 179.063 206.159 151.791 206.159C124.52 206.159 113.461 209.491 104.444 214.866C94.9851 220.503 89.558 229.931 89.558 240.731C89.558 253.795 101.714 263.561 112.585 263.561H112.602ZM193.431 224.344C201.682 229.261 202.907 236.721 202.907 240.723C202.907 247.064 196.383 252.489 191.032 252.489C185.681 252.489 181.164 249.929 178.213 245.072C175.167 240.061 173.151 234.229 172.496 221.716C172.403 219.817 174.07 218.316 175.967 218.596C185.205 219.952 189.722 222.131 193.422 224.335H193.431V224.344ZM110.212 224.344C113.912 222.131 118.438 219.952 127.667 218.605C129.564 218.333 131.231 219.834 131.138 221.724C130.483 234.237 128.475 240.07 125.421 245.08C122.47 249.929 118.038 252.506 112.602 252.506C107.166 252.506 100.727 247.072 100.727 240.739C100.727 236.73 101.96 229.278 110.203 224.361H110.212V224.344Z" fill="#28030F"/>
<path d="M438.043 169.156C457.472 169.156 473.235 182.678 472.903 202.702C472.903 205.127 472.274 206.848 470.989 207.958C469.705 209.069 467.799 209.544 465.298 209.552H419.669C417.713 209.552 416.284 210.137 415.399 211.248C414.557 212.29 414.174 213.833 414.302 215.868L414.336 216.283L414.429 217.267C415.433 227.355 418.785 234.62 423.557 239.402C428.482 244.336 434.93 246.633 441.905 246.633C449.595 246.633 457.481 243.836 464.158 236.74C466.132 234.748 468.556 234.595 470.138 235.629C471.729 236.672 472.444 238.876 471.074 241.487C463.035 256.281 448.183 260.24 436.725 260.24C424.373 260.24 413.817 255.696 406.348 247.795C398.905 239.91 394.541 228.695 394.507 215.317H394.499V215.181C394.499 187.197 415.442 169.156 438.052 169.156H438.043ZM435.891 178.083C427.819 178.083 418.036 183.458 415.348 196.005C414.965 197.633 415.195 198.862 415.824 199.676C416.445 200.49 417.5 200.93 418.81 200.93H448.796C450.361 200.93 451.492 200.447 452.19 199.549C452.896 198.642 453.193 197.294 453.032 195.496C452.581 189.24 450.199 184.891 446.984 182.102C443.768 179.313 439.702 178.083 435.891 178.083Z" fill="#28030F"/>
<path d="M498.423 170.919C501.323 169.647 503.535 169.384 505.049 170.13C506.683 170.927 507.448 172.835 507.448 175.666C507.278 196.063 507.278 212.874 507.448 230.355L507.516 233.237C507.584 235.95 507.669 238.171 507.831 239.994C508.044 242.436 508.392 244.174 509.013 245.479C510.094 247.751 512.008 248.743 515.614 249.82L517.265 250.294L517.809 250.481C519.025 250.947 519.893 251.634 520.421 252.414C521.033 253.304 521.203 254.33 520.982 255.288C520.54 257.212 518.549 258.874 515.47 258.916C504.241 258.874 492.808 258.874 481.282 258.916C478.296 258.874 476.399 257.221 475.991 255.305C475.574 253.389 476.663 251.269 479.53 250.337L481.112 249.887C484.583 248.853 486.556 247.87 487.73 245.589C488.402 244.275 488.819 242.529 489.083 240.07C489.346 237.612 489.448 234.458 489.525 230.347L489.584 227.193C489.695 219.784 489.678 211.984 489.525 204.024C489.457 198.539 488.955 195.411 487.56 193.189C486.165 190.968 483.877 189.637 480.168 187.781C477.888 186.543 476.799 185.034 476.859 183.533C476.918 182.041 478.126 180.634 480.261 179.6L484.523 177.574C488.666 175.598 492.63 173.699 497.81 171.173L498.397 170.902L498.423 170.919ZM496.926 132.481C504.241 132.481 510.17 137.958 510.17 144.715C510.17 152.005 504.292 157.982 496.926 157.982C489.559 157.982 483.766 152.37 483.766 145.418C483.766 138.467 489.695 132.481 496.926 132.481Z" fill="#28030F"/>
<path d="M597.804 126.107C600.39 124.809 602.627 124.36 604.26 124.987C606.021 125.666 606.999 127.573 606.991 130.829L606.923 144.35C606.787 175.107 606.778 200.87 606.897 233.797V234.399C606.965 237.332 607.527 239.265 608.616 240.503C609.773 241.817 611.542 242.385 614.051 242.495L614.349 242.512C615.812 242.631 616.909 243.106 617.658 243.801C618.466 244.547 618.874 245.53 618.934 246.565C619.036 248.497 617.922 250.591 615.872 251.626L615.446 251.821C612.809 252.897 610.011 254.22 607.204 255.534C604.396 256.848 601.589 258.17 598.918 259.23C596.434 260.196 594.393 260.425 592.904 259.79C591.407 259.154 590.514 257.662 590.293 255.296L590.233 254.881C589.893 252.855 588.889 251.558 587.545 251.049C586.107 250.507 584.245 250.837 582.305 252.211C576.274 256.772 569.367 260.264 559.397 260.256C541.38 260.247 521.883 245.123 521.764 216.461L521.747 216.478V216.155L521.764 214.824C522.054 201.159 526.63 189.697 534.235 181.584C542.086 173.208 553.162 168.401 566.058 168.41L567.223 168.427C573.024 168.562 578.213 169.707 583.283 171.64C585.41 172.437 586.907 172.403 587.877 171.716C588.847 171.029 589.331 169.664 589.331 167.664V153.888C589.28 150.768 588.787 148.809 587.545 147.267C586.21 145.613 583.998 144.41 580.442 142.782C578.009 141.621 576.869 140.027 576.903 138.45C576.937 136.882 578.154 135.406 580.281 134.474L582.458 133.55C587.545 131.354 592.606 128.879 597.251 126.369L597.77 126.098L597.804 126.107ZM565.717 177.574C559.508 177.574 553.443 179.549 548.934 184.661C544.426 189.765 541.448 198.022 541.448 210.611C541.448 222.386 544.162 231.805 548.781 238.282C553.374 244.716 559.848 248.235 567.436 248.277H567.572C579.532 248.277 589.314 239.138 589.314 226.134V198.022C589.314 188.942 580.476 177.591 565.717 177.591V177.574Z" fill="#28030F"/>
<path d="M644.131 170.919C647.032 169.647 649.243 169.384 650.757 170.13C652.391 170.927 653.156 172.835 653.156 175.666C652.986 196.063 652.986 212.874 653.156 230.355L653.258 235.798C653.284 237.392 653.318 238.79 653.377 240.011C653.488 242.453 653.709 244.191 654.194 245.496C654.679 246.793 655.436 247.666 656.652 248.387C657.724 249.014 659.153 249.514 661.059 250.066L661.909 250.303L662.454 250.489C663.67 250.956 664.538 251.642 665.065 252.422C665.678 253.312 665.848 254.338 665.627 255.296C665.184 257.221 663.194 258.882 660.115 258.925C648.886 258.882 639.597 258.882 628.071 258.925C625.085 258.882 623.188 257.229 622.78 255.313C622.363 253.397 623.46 251.278 626.318 250.345L627.126 250.116C631.048 248.997 632.97 248.048 633.974 245.606C634.519 244.292 634.799 242.546 634.961 240.079C635.123 237.62 635.165 234.467 635.233 230.355L635.293 227.201C635.403 219.792 635.386 211.993 635.233 204.032C635.165 198.547 634.663 195.419 633.268 193.198C631.873 190.977 629.585 189.646 625.876 187.789C623.596 186.551 622.499 185.042 622.567 183.542C622.626 182.05 623.834 180.643 625.97 179.608C631.882 176.811 636.611 174.556 643.527 171.182L644.114 170.91L644.131 170.919ZM642.634 132.481C649.949 132.481 655.878 137.958 655.878 144.715C655.878 152.005 650 157.982 642.634 157.982C635.267 157.982 629.466 152.37 629.466 145.418C629.466 138.467 635.395 132.481 642.634 132.481Z" fill="#28030F"/>
<path d="M278.368 141.036L282.647 141.104C292.769 141.239 303.836 141.214 313.823 141.036H314.129C317.217 141.104 319.054 142.859 319.454 144.927C319.871 147.055 318.757 149.48 316.009 150.658C311.339 152.421 308.719 153.685 307.23 155.617C305.75 157.55 305.385 160.178 305.325 164.748C305.231 170.428 305.189 175.709 305.172 180.321V190.808C305.172 193.199 307.12 195.14 309.519 195.14H359.996C362.404 195.14 364.343 193.199 364.343 190.808V180.321L364.326 176.633C364.309 174.132 364.292 171.547 364.249 168.919L364.19 164.951C364.13 160.348 363.773 157.703 362.293 155.779C360.804 153.846 358.176 152.591 353.463 150.828C350.699 149.641 349.601 147.233 350.018 145.105C350.435 142.977 352.349 141.18 355.522 141.197L359.928 141.265C370.289 141.401 381.143 141.375 391.207 141.197H391.504C394.558 141.265 396.387 142.994 396.812 145.046C397.246 147.157 396.174 149.573 393.469 150.777C388.714 152.625 386.069 153.905 384.58 155.923C383.278 157.686 382.845 160.034 382.7 163.883L382.658 165.629C382.334 189.892 382.334 209.272 382.658 228.881L382.726 231.814C382.802 234.569 382.896 236.79 383.083 238.621C383.33 241.055 383.729 242.775 384.418 244.064C385.779 246.641 388.289 247.582 393.163 249.21C394.677 249.753 395.664 250.643 396.208 251.677C396.744 252.711 396.838 253.873 396.566 254.958C396.021 257.128 394.031 259.027 391.309 259.027C379.935 258.866 367.516 258.908 355.539 259.027C352.817 259.027 350.86 257.137 350.316 254.966C350.044 253.881 350.129 252.72 350.648 251.685C351.175 250.651 352.128 249.761 353.591 249.201L355.335 248.583C359.146 247.201 361.238 246.167 362.429 243.945C363.118 242.674 363.509 240.995 363.756 238.613C363.994 236.231 364.079 233.162 364.156 229.11L364.232 224.998C364.292 220.92 364.318 216.936 364.318 213.257V209.408C364.318 207.017 362.37 205.076 359.971 205.076H309.493C307.086 205.076 305.146 207.009 305.146 209.408V209.815C305.146 214.113 305.146 220.115 305.257 226.397L305.308 229.101L305.368 231.984C305.436 234.688 305.529 236.884 305.716 238.689C305.963 241.097 306.371 242.792 307.06 244.081C308.268 246.328 310.352 247.353 314.138 248.684L315.865 249.269L316.137 249.38C317.455 249.914 318.34 250.744 318.85 251.702C319.395 252.72 319.497 253.873 319.242 254.958C318.731 257.12 316.775 259.019 313.934 259.019C302.356 258.857 290.141 258.857 278.164 259.019C275.34 259.044 273.358 257.162 272.822 255C272.558 253.915 272.652 252.762 273.187 251.736C273.723 250.711 274.71 249.82 276.19 249.278L277.917 248.684C281.702 247.353 283.804 246.302 285.02 243.996C285.717 242.674 286.134 240.927 286.39 238.452C286.645 235.985 286.747 232.797 286.832 228.618L286.925 221.395C287.113 204.372 287.079 186.137 286.832 165.299L286.789 163.586C286.645 159.797 286.202 157.474 284.884 155.719C283.37 153.702 280.699 152.404 275.91 150.539C273.281 149.369 272.201 146.979 272.635 144.876C273.068 142.765 275.025 140.994 278.376 141.028L278.368 141.036Z" fill="#28030F"/>
</g>
<defs>
<clipPath id="clip0_14_196">
<rect width="604.608" height="180.725" fill="white" transform="translate(61.1211 110)"/>
</clipPath>
</defs>
</svg>