<?xml version="1.0" standalone="no"?>
<!DOCTYPE svg PUBLIC "-//W3C//DTD SVG 1.1//EN" "http://www.w3.org/Graphics/SVG/1.1/DTD/svg11.dtd">
<svg xmlns="http://www.w3.org/2000/svg" width="400" height="400" viewBox="0 0 400 400" fill="none">
<path d="M319.348 148.121C317.743 111.712 288.24 82.1251 251.778 80.3463C233.928 79.4682 217.426 85.1761 204.493 95.2297C201.731 97.38 197.813 97.38 195.041 95.2297C182.108 85.1648 165.606 79.4682 147.756 80.3463C111.294 82.1251 81.7912 111.723 80.1634 148.132C79.3663 166.055 85.2264 182.582 95.4759 195.484C97.6874 198.276 97.6874 202.25 95.4759 205.031C85.2264 217.944 79.3663 234.46 80.1634 252.383C81.7799 288.792 111.271 318.379 147.745 320.169C165.594 321.047 182.097 315.339 195.029 305.286C197.791 303.135 201.709 303.135 204.482 305.286C217.414 315.339 233.917 321.036 251.766 320.169C288.229 318.39 317.731 288.792 319.348 252.383C320.145 234.46 314.285 217.933 304.035 205.031C301.824 202.239 301.824 198.265 304.035 195.484C314.285 182.594 320.145 166.055 319.348 148.132V148.121ZM286.949 203.579C301.914 217.584 309.604 239.256 303.721 262.324C298.501 282.724 282.391 298.801 261.96 304.002C238.834 309.879 217.134 302.201 203.101 287.239C201.294 285.314 198.251 285.314 196.444 287.239C182.411 302.19 160.711 309.879 137.585 304.002C117.142 298.812 101.033 282.724 95.8239 262.324C89.9301 239.256 97.6313 217.595 112.596 203.579C114.527 201.778 114.527 198.738 112.596 196.937C97.6313 182.931 89.9414 161.259 95.8239 138.191C101.044 117.791 117.154 101.714 137.585 96.5131C160.711 90.6363 182.411 98.3144 196.444 113.277C198.251 115.202 201.294 115.202 203.101 113.277C217.134 98.3257 238.834 90.6363 261.96 96.5131C282.403 101.703 298.512 117.791 303.721 138.191C309.615 161.259 301.914 182.931 286.949 196.937C285.018 198.738 285.018 201.778 286.949 203.579Z" fill="#28030F"/>
<path d="M251.488 116.317C239.252 116.317 228.486 122.497 221.975 133.26C216.833 141.749 213.465 151.161 212.387 170.322C212.152 174.488 208.739 177.764 204.574 177.82C203.014 177.843 201.419 177.854 199.758 177.854C198.097 177.854 196.491 177.854 194.942 177.82C190.777 177.764 187.353 174.488 187.129 170.322C186.051 151.15 182.672 141.738 177.541 133.26C171.019 122.497 160.264 116.317 148.028 116.317C133.692 116.317 117.639 129.286 117.639 146.635C117.639 160.967 124.801 173.497 137.284 180.984C149.184 188.122 163.778 192.546 199.769 192.546C235.76 192.546 250.354 188.122 262.254 180.984C274.738 173.497 281.9 160.978 281.9 146.635C281.9 129.286 265.858 116.317 251.511 116.317H251.488ZM144.828 168.397C133.939 161.867 132.322 151.96 132.322 146.646C132.322 138.225 140.933 131.02 147.994 131.02C155.055 131.02 161.017 134.42 164.912 140.871C168.931 147.524 171.592 155.259 172.456 171.887C172.579 174.409 170.379 176.402 167.876 176.03C155.684 174.229 149.723 171.336 144.84 168.409H144.828V168.397ZM254.643 168.397C249.759 171.336 243.787 174.229 231.607 176.019C229.103 176.379 226.903 174.387 227.026 171.876C227.891 155.259 230.54 147.513 234.57 140.86C238.466 134.42 244.315 131.009 251.488 131.009C258.662 131.009 267.16 138.225 267.16 146.635C267.16 151.96 265.532 161.856 254.654 168.386L254.643 168.397Z" fill="#28030F"/>
<path d="M148.037 284.187C160.274 284.187 171.04 278.006 177.551 267.244C182.692 258.755 186.06 249.343 187.138 230.182C187.374 226.016 190.786 222.74 194.951 222.684C196.512 222.661 198.106 222.65 199.767 222.65C201.429 222.65 203.023 222.65 204.583 222.684C208.748 222.74 212.172 226.016 212.397 230.182C213.474 249.354 216.853 258.766 221.984 267.244C228.506 278.006 239.261 284.187 251.497 284.187C265.833 284.187 281.887 271.218 281.887 253.869C281.887 239.537 274.724 227.007 262.241 219.52C250.341 212.382 235.747 207.958 199.756 207.958C163.765 207.958 149.171 212.382 137.271 219.52C124.788 227.007 117.625 239.526 117.625 253.869C117.625 271.218 133.668 284.187 148.015 284.187H148.037ZM254.697 232.107C265.586 238.636 267.203 248.544 267.203 253.858C267.203 262.279 258.592 269.484 251.531 269.484C244.47 269.484 238.509 266.084 234.613 259.633C230.594 252.979 227.934 245.234 227.069 228.617C226.946 226.095 229.146 224.102 231.65 224.474C243.841 226.275 249.802 229.168 254.686 232.095H254.697V232.107ZM144.883 232.107C149.766 229.168 155.738 226.275 167.919 224.485C170.422 224.125 172.622 226.117 172.499 228.628C171.635 245.245 168.985 252.991 164.955 259.644C161.059 266.084 155.211 269.507 148.037 269.507C140.864 269.507 132.365 262.29 132.365 253.88C132.365 248.555 133.993 238.659 144.871 232.129H144.883V232.107Z" fill="#28030F"/>
</svg>