<?xml version="1.0" standalone="no"?>
<!DOCTYPE svg PUBLIC "-//W3C//DTD SVG 1.1//EN" "http://www.w3.org/Graphics/SVG/1.1/DTD/svg11.dtd">
<svg xmlns="http://www.w3.org/2000/svg" width="400" height="400" viewBox="0 0 400 400" fill="none">
<g clip-path="url(#clip0_14_302)">
<path d="M319.44 147.888C317.833 111.554 288.308 82.0293 251.818 80.2542C233.955 79.3779 217.439 85.0739 204.497 95.1066C201.733 97.2524 197.812 97.2524 195.037 95.1066C182.095 85.0627 165.58 79.3779 147.716 80.2542C111.226 82.0293 81.7009 111.566 80.0719 147.899C79.2742 165.785 85.1388 182.277 95.3961 195.152C97.6094 197.939 97.6094 201.904 95.3961 204.679C85.1388 217.566 79.2742 234.047 80.0719 251.933C81.6897 288.266 111.203 317.791 147.705 319.577C165.569 320.454 182.084 314.758 195.026 304.725C197.79 302.579 201.711 302.579 204.486 304.725C217.428 314.758 233.943 320.443 251.807 319.577C288.297 317.802 317.822 288.266 319.44 251.933C320.238 234.047 314.373 217.554 304.116 204.679C301.903 201.893 301.903 197.927 304.116 195.152C314.373 182.288 320.238 165.785 319.44 147.899V147.888ZM287.016 203.23C301.992 217.206 309.688 238.833 303.801 261.853C298.577 282.211 282.455 298.254 262.008 303.444C238.864 309.309 217.147 301.647 203.104 286.716C201.295 284.795 198.251 284.795 196.442 286.716C182.398 301.636 160.681 309.309 137.538 303.444C117.079 298.265 100.957 282.211 95.7444 261.853C89.8461 238.833 97.5532 217.217 112.529 203.23C114.462 201.433 114.462 198.399 112.529 196.602C97.5532 182.626 89.8574 160.999 95.7444 137.979C100.969 117.621 117.09 101.578 137.538 96.3874C160.681 90.5228 182.398 98.1849 196.442 113.116C198.251 115.037 201.295 115.037 203.104 113.116C217.147 98.1962 238.864 90.5228 262.008 96.3874C282.466 101.567 298.588 117.621 303.801 137.979C309.699 160.999 301.992 182.626 287.016 196.602C285.084 198.399 285.084 201.433 287.016 203.23Z" fill="white"/>
<path d="M251.528 116.15C239.282 116.15 228.508 122.318 221.992 133.058C216.846 141.529 213.476 150.921 212.397 170.043C212.162 174.2 208.746 177.469 204.578 177.525C203.016 177.548 201.421 177.559 199.758 177.559C198.096 177.559 196.489 177.559 194.939 177.525C190.77 177.469 187.344 174.2 187.119 170.043C186.041 150.91 182.659 141.518 177.525 133.058C170.997 122.318 160.234 116.15 147.988 116.15C133.642 116.15 117.576 129.092 117.576 146.405C117.576 160.707 124.744 173.211 137.237 180.682C149.146 187.805 163.751 192.22 199.77 192.22C235.788 192.22 250.393 187.805 262.302 180.682C274.795 173.211 281.963 160.718 281.963 146.405C281.963 129.092 265.909 116.15 251.551 116.15H251.528ZM144.787 168.122C133.889 161.606 132.271 151.719 132.271 146.416C132.271 138.013 140.888 130.822 147.955 130.822C155.021 130.822 160.987 134.215 164.886 140.653C168.908 147.292 171.57 155.011 172.435 171.605C172.559 174.121 170.357 176.11 167.852 175.739C155.651 173.941 149.685 171.054 144.798 168.133H144.787V168.122ZM254.685 168.122C249.798 171.054 243.821 173.941 231.631 175.728C229.126 176.087 226.924 174.099 227.048 171.593C227.913 155.011 230.564 147.281 234.597 140.641C238.496 134.215 244.349 130.811 251.528 130.811C258.707 130.811 267.212 138.013 267.212 146.405C267.212 151.719 265.583 161.594 254.696 168.11L254.685 168.122Z" fill="white"/>
<path d="M147.998 283.67C160.244 283.67 171.018 277.503 177.534 266.762C182.68 258.291 186.05 248.899 187.128 229.777C187.364 225.62 190.78 222.351 194.948 222.295C196.51 222.272 198.105 222.261 199.768 222.261C201.43 222.261 203.026 222.261 204.587 222.295C208.755 222.351 212.182 225.62 212.407 229.777C213.485 248.91 216.867 258.302 222.001 266.762C228.529 277.503 239.292 283.67 251.537 283.67C265.884 283.67 281.95 270.728 281.95 253.415C281.95 239.113 274.782 226.609 262.289 219.138C250.38 212.015 235.775 207.6 199.756 207.6C163.738 207.6 149.132 212.015 137.224 219.138C124.731 226.609 117.563 239.102 117.563 253.415C117.563 270.728 133.617 283.67 147.975 283.67H147.998ZM254.739 231.698C265.637 238.215 267.255 248.101 267.255 253.404C267.255 261.808 258.638 268.998 251.571 268.998C244.504 268.998 238.539 265.605 234.64 259.167C230.618 252.528 227.956 244.798 227.091 228.216C226.967 225.699 229.169 223.71 231.674 224.081C243.875 225.879 249.841 228.766 254.728 231.687H254.739V231.698ZM144.841 231.698C149.728 228.766 155.705 225.879 167.895 224.092C170.4 223.733 172.602 225.721 172.478 228.227C171.613 244.809 168.962 252.539 164.929 259.179C161.03 265.605 155.177 269.02 147.998 269.02C140.819 269.02 132.314 261.819 132.314 253.426C132.314 248.112 133.943 238.237 144.83 231.721H144.841V231.698Z" fill="white"/>
</g>
<defs>
<clipPath id="clip0_14_302">
<rect width="332.571" height="240" fill="white" transform="translate(33.3772 79.6581)"/>
</clipPath>
</defs>
</svg>